<svg xmlns="http://www.w3.org/2000/svg" xmlns:xlink="http://www.w3.org/1999/xlink" width="72.167" height="1911" viewBox="0 0 72.167 1911"><defs><clipPath id="a"><path d="M3952.166,1911H3880l.166-1911h72Z" transform="translate(-3880)" fill="none"/></clipPath></defs><g transform="translate(-3880)"><g transform="translate(3880)"><path d="M3880.562.551,3880,1911h72.166V.551Z" transform="translate(-3880)" fill="#5e4734"/><path d="M3952.166,489.5V0h-72L3880,1911h72.166V602.29l-6.569,15.647-22.355-41.669L3945.6,544.95Z" transform="translate(-3880)" fill="#8b684a"/><g opacity="0.45"><g clip-path="url(#a)"><path d="M3743.309,148.449q-5.161,110.765-10.283,222.387-10.23,223.372-19.8,461.432c-6.435,157.385-12.944,312.62-19.874,458.565-6.864,147.371-14.337,281.535-21.3,427.181-3.5,72.427-6.843,148.163-10.1,225.742-3.288,76.978-6.494,155.69-9.655,235.328-6.307,159.567-12.442,322.779-18.018,497.189l.48,9.825c3.709-68.049,7.271-139.043,10.8-210.667,3.536-71.506,6.979-144.859,10.413-218.422,3.425-73.739,6.8-148.457,10.155-223.71q5.046-112.506,9.821-230.837c6.339-158.417,12.31-325.116,18.892-478.567,3.3-76.461,6.708-150.64,10.177-223.331.865-18.224,1.741-36.195,2.624-54.045l2.677-52.8c1.776-35.4,3.6-69.709,5.4-104.545l5.421-103.891,2.735-51.344,2.7-52.021c3.622-68.938,7.1-141.194,10.672-211.188q5.363-104.8,10.674-210.742l1.758-34.644V16.938C3747.523,60.012,3745.385,103.515,3743.309,148.449Z" transform="translate(-3749.116 12.94)" fill="#5e4734"/><path d="M3931.583-461.512c-4.121,54.487-8.167,111.952-12.185,170.624-2.019,29.061-3.932,60.956-5.88,92.078-1.939,31.289-3.891,62.353-5.805,94.432-3.893,62.6-7.583,130.238-11.314,197.073-1.865,33.424-3.711,67.35-5.559,101.261-1.835,34.158-3.614,69.723-5.419,104.637-1.406,27.95-2.817,55.821-4.22,83.868v208.4l3.58-70.545q2.658-52.813,5.286-106.36l5.225-107.906c1.758-35.475,3.519-70.935,5.26-106.9l5.22-108.059,2.592-54.54L3911-16.691c3.522-70.878,6.973-144.037,10.468-216.072,3.545-70.562,7.06-142.33,10.5-217.074Z" transform="translate(-3880.64 -352.582)" fill="#5e4734"/><path d="M3762.751,659.9c-6.348,138.4-12.681,277.122-18.958,417.072-6.258,140.4-12.523,280.616-18.7,422.834q-9.3,212.516-18.442,428.248l-9.1,216.8-4.533,108.692-4.484,109.714L3693.325,2260l4.758-103.792,9.538-207.081,19.008-415.493,19.01-415.276c6.336-138.4,12.67-276.859,19.049-414.258q6.918-150.624,13.893-299.895V321.914Q3770.618,489.832,3762.751,659.9Z" transform="translate(-3778.02 245.933)" fill="#5e4734"/><path d="M3935.248-200.96c-3.629,57.486-7.152,118.116-10.633,179.8-6.93,124.291-13.666,253.65-20.307,385.251-6.658,131.209-13.17,265.949-19.671,400.859q-1.721,36.035-3.436,72.221v82.293q2.621-56.131,5.246-112.122c6.386-137.209,12.85-272.5,19.32-407.652,3.24-67.437,6.512-134.079,9.789-200.643q4.912-99.882,9.932-196.991c3.337-65.013,6.714-129,10.2-189.916,1.736-30.686,3.518-59.97,5.33-88.345,1.812-28.3,3.675-55.341,5.688-76.322C3942.573-315.221,3938.881-257.744,3935.248-200.96Z" transform="translate(-3880.64 -269.322)" fill="#5e4734"/><path d="M3674.116,3094.456S3849.468-199.749,3895.884-670.352" transform="translate(-3770.335 -512.13)" fill="none" stroke="#5e4734" stroke-miterlimit="10" stroke-width="3"/><path d="M3811.489,805.118q-12.638,231.513-24.825,475.11-6.1,121.59-12.035,247.348c-1.981,41.863-3.946,84.108-5.889,127.011-.976,21.316-1.938,43.08-2.9,64.828l-1.432,33.18-.714,17.29-.179,4.355c-.065,1.668-.1,2.369-.2,5.04-.164,4.571-.323,9.314-.473,14.115l2.443,28.222c.061-1.145.113-2.351.159-3.729.007-.381.091-2.344.137-3.53l.165-4.078.66-16.331,1.384-32.741c.939-21.681,1.876-43.378,2.836-64.768q2.856-64.453,5.789-127.53c3.9-84.18,7.853-167.371,11.867-249.085q12.012-245.788,24.526-479.446,2.663-49.871,5.348-99.179V684.267Q3814.81,744.3,3811.489,805.118Z" transform="translate(-3817.597 522.76)" fill="#5e4734"/><path d="M4032.88-484.751l-3.726,37.433-3.692,39.107-7.379,78.412-7.308,81.617L4007.12-207.3l-3.62,42.319-7.233,84.923L3989.1,7.759l-3.582,43.956-3.545,45.357-7.088,90.859-7.021,93.392c-2.35,30.788-4.662,62.963-6.979,94.951-2.311,32.194-4.649,63.448-6.939,96.422-9.217,129.837-18.28,264.982-27.252,403.1q-23.317,361.911-45.5,758.751v56.934q22.492-413.571,46.287-790.668c8.89-139.962,17.876-277.01,27.018-408.809,2.271-33.466,4.59-65.212,6.883-97.9,2.3-32.489,4.592-65.165,6.925-96.457l6.969-94.923,7.038-92.409,3.52-46.142,3.557-44.747,7.116-89.41,7.188-86.544,3.6-43.14,3.632-41.706,7.266-83.284,7.339-80.1,3.672-39.961,3.707-38.292,7.417-76.59Z" transform="translate(-3880.64 -427.522)" fill="#5e4734"/></g></g><path d="M3880.354,0l.4,211.985c10.883-12.829,17.788-24.762,71.417-18.1V0Z" transform="translate(-3880)" fill="#e2c9ad" opacity="0.24"/><path d="M3952.167,823.622c-27.09-3.981-50.681-5.618-71.6-5.285L3880,1083.351h72.167Z" transform="translate(-3880 827.649)" fill="#8b684a" opacity="0.15" style="mix-blend-mode:multiply;isolation:isolate"/></g><g transform="translate(3888.449)"><path d="M3891.136,0V1848.233c4.337-14.285,9.024-29.115,12.918-44.139,19.188-109.684,41.972-230.367,41.972-230.367V0Z" transform="translate(-3890.537)" fill="#c5bcac"/><path d="M3905.947,795.853c-3.237,3.87-9.431,9.457-14.811,20.192v249.391l6.722-10.6,2.537,28.518h45.631v-351.6S3938.939,747.435,3905.947,795.853Z" transform="translate(-3890.537 827.649)" fill="#a29888"/><path d="M3891.136,1065.436v17.915l16.185-28.518Z" transform="translate(-3891.024 827.649)" fill="#80776b"/><path d="M3929.837,1054.833l-38.7,28.518h53.3Z" transform="translate(-3891.136 827.649)" fill="#6b635a"/><path d="M3944.667,0l-4.622,42.179-7.776,13.532L3942.9,43.248,3946.76,0Z" transform="translate(-3906.609)" fill="#362f29"/><path d="M3994.238,87.862l5.667,3.194-2.34,6.568-6.953-4.387Z" transform="translate(-3946.942)" fill="#80776b"/><path d="M3968.785,527.827c-.2-5.4-.16-10.959-.65-16.236-.157-1.684-2.682-1.569-3.568.312-.02.041-.043.08-.062.121a2.509,2.509,0,0,0-.217.151,21.766,21.766,0,0,0-3.324,3.707,8.819,8.819,0,0,0-2.209,3.995c-.012.027-.025.053-.037.08h.018c-.056.218-.116.434-.158.659-.373,1.97,1.034,2.353,2.411,1.717q.339.809.676,1.616-.335,2.364-.668,4.73c-.3,2.114,1.735,2.2,3.062.994q.2.476.4.951C3965.448,532.995,3968.876,530.337,3968.785,527.827Z" transform="translate(-3932.526 397.696)" fill="#a29888"/><path d="M3946.866,103.489c-4.516-1.092-9.082-1.987-13.58-3.138-1.424-.364-2.312,1.505-1.763,3.418.986,3.443,3.238,3.56,5.456,4.223l3.533,1.055a2.126,2.126,0,0,0,1.146.908,22.067,22.067,0,0,0,4.554.73C3948.938,110.959,3949.617,104.154,3946.866,103.489Z" transform="translate(-3928.595)" fill="#80776b"/><path d="M3980.491,816.422a10.248,10.248,0,0,0-3.82-.811c-.784-.033-1.335.564-1.626,1.386-.15.023-.3.048-.451.073-.116-.38-.229-.76-.344-1.14-.743-2.461-3.319-1.135-3.3,1.332.009,1.163.04,2.323-.031,3.482-.111,1.818,1.153,3.518,2.319,3.456,2.2-.117,4.4-.4,6.6-.607C3982.574,823.331,3983.193,817.7,3980.491,816.422Z" transform="translate(-3940.611 627.899)" fill="#e8decf" opacity="0.4"/></g></g></svg>