<svg xmlns="http://www.w3.org/2000/svg" xmlns:xlink="http://www.w3.org/1999/xlink" width="1083.351" height="57.624" viewBox="0 0 1083.351 57.624"><defs><clipPath id="a"><path d="M3937.623,1083.351H3880L3880.132,0h57.49Z" transform="translate(-3880)" fill="none"/></clipPath></defs><g transform="translate(1083.351 -3880) rotate(90)"><g transform="translate(3880)"><path d="M3880.449.551l-.449,1082.8h57.623V.551Z" transform="translate(-3880)" fill="#5e4734"/><path d="M3937.623,277.5V0h-57.49L3880,1083.351h57.623V341.44l-5.245,8.87-17.85-23.622,17.85-17.754Z" transform="translate(-3880)" fill="#8b684a"/><g opacity="0.45"><g clip-path="url(#a)"><path d="M3721.337,91.492q-4.121,62.793-8.211,126.072-8.169,126.63-15.811,261.587c-5.138,89.222-10.335,177.225-15.869,259.962-5.481,83.545-11.448,159.6-17.005,242.17-2.793,41.059-5.464,83.994-8.067,127.974-2.625,43.639-5.185,88.261-7.709,133.408-5.036,90.459-9.935,182.984-14.387,281.858l.383,5.57c2.962-38.577,5.806-78.824,8.624-119.428,2.823-40.537,5.573-82.121,8.314-123.824,2.735-41.8,5.432-84.161,8.108-126.822q4.03-63.78,7.842-130.862c5.061-89.807,9.829-184.309,15.085-271.3,2.636-43.346,5.356-85.4,8.126-126.607.69-10.331,1.391-20.519,2.095-30.638l2.138-29.935c1.418-20.068,2.873-39.518,4.31-59.267l4.329-58.9,2.184-29.107,2.159-29.491c2.892-39.081,5.67-80.043,8.521-119.723q4.282-59.413,8.523-119.47l1.4-19.64V16.938C3724.7,41.357,3722.994,66.019,3721.337,91.492Z" transform="translate(-3725.973)" fill="#5e4734"/><path d="M3921.43-461.512c-3.291,30.889-6.521,63.466-9.729,96.727-1.612,16.475-3.14,34.556-4.695,52.2-1.549,17.738-3.107,35.348-4.636,53.534-3.108,35.489-6.055,73.832-9.034,111.721-1.489,18.948-2.963,38.181-4.438,57.4-1.465,19.364-2.885,39.526-4.327,59.319-1.123,15.845-2.249,31.645-3.37,47.545V135.082l2.858-39.992q2.123-29.94,4.221-60.3l4.172-61.172c1.4-20.111,2.81-40.213,4.2-60.6l4.168-61.259,2.069-30.919L3905-209.342c2.813-40.181,5.568-81.655,8.358-122.492,2.831-40,5.637-80.687,8.384-123.06Z" transform="translate(-3880.753)" fill="#5e4734"/><path d="M3747.8,513.521c-5.068,78.462-10.126,157.1-15.138,236.439-5,79.591-10,159.082-14.928,239.706q-7.423,120.476-14.726,242.775l-7.263,122.9-3.62,61.618-3.581,62.2,3.819-58.537,3.8-58.84,7.616-117.4,15.177-235.544,15.179-235.421c5.059-78.462,10.117-156.952,15.21-234.844q5.525-85.389,11.093-170.011V321.914Q3754.078,417.107,3747.8,513.521Z" transform="translate(-3759.988)" fill="#5e4734"/><path d="M3924.356-266.6c-2.9,32.589-5.71,66.96-8.49,101.928-5.533,70.461-10.912,143.795-16.215,218.4-5.316,74.383-10.516,150.767-15.707,227.248q-1.375,20.429-2.743,40.942v46.652q2.093-31.821,4.189-63.562c5.1-77.784,10.261-154.479,15.426-231.1,2.587-38.23,5.2-76.01,7.816-113.745s5.257-75,7.931-111.675c2.664-36.856,5.36-73.132,8.144-107.664,1.386-17.4,2.809-34,4.256-50.083,1.447-16.045,2.935-31.373,4.542-43.267C3930.205-331.379,3927.257-298.8,3924.356-266.6Z" transform="translate(-3880.753)" fill="#5e4734"/><path d="M3674.116,1463.928S3814.13-403.566,3851.192-670.352" transform="translate(-3750.945)" fill="none" stroke="#5e4734" stroke-miterlimit="10" stroke-width="3"/><path d="M3801.686,752.778q-10.091,131.246-19.822,269.341-4.87,68.93-9.609,140.222c-1.582,23.732-3.151,47.681-4.7,72-.779,12.084-1.547,24.422-2.314,36.751l-1.144,18.81-.57,9.8-.143,2.469c-.052.946-.083,1.343-.159,2.857-.131,2.591-.258,5.28-.378,8l1.951,16c.049-.649.09-1.333.127-2.114.006-.216.073-1.329.109-2l.132-2.312.527-9.258,1.1-18.561c.75-12.291,1.5-24.591,2.265-36.717q2.281-36.539,4.623-72.3c3.116-47.722,6.271-94.883,9.476-141.207q9.592-139.338,19.583-271.8,2.127-28.272,4.271-56.225V684.267Q3804.338,718.3,3801.686,752.778Z" transform="translate(-3806.563)" fill="#5e4734"/><path d="M4002.313-517.17l-2.976,21.221-2.948,22.17-5.892,44.452-5.835,46.269-2.917,23.177-2.89,23.991-5.776,48.143-5.72,49.782-2.86,24.919-2.831,25.713-5.66,51.508L3950.4-82.881c-1.876,17.454-3.722,35.694-5.573,53.828-1.845,18.251-3.712,35.969-5.541,54.662-7.359,73.6-14.6,150.219-21.76,228.52Q3898.91,459.3,3881.2,684.267v32.276q17.959-234.455,36.959-448.232c7.1-79.345,14.273-157.038,21.573-231.755,1.813-18.972,3.665-36.969,5.5-55.5,1.836-18.418,3.667-36.942,5.529-54.682l5.564-53.812,5.62-52.387,2.811-26.158,2.84-25.367,5.682-50.687,5.739-49.062,2.873-24.456,2.9-23.643,5.8-47.214,5.86-45.41,2.932-22.654,2.96-21.708,5.922-43.419Z" transform="translate(-3880.753)" fill="#5e4734"/></g></g><path d="M3880.354,0l.315,211.985c8.679-12.829,14.186-24.762,56.954-18.1V0Z" transform="translate(-3880)" fill="#e2c9ad" opacity="0.24"/><path d="M3937.623,823.622c-21.631-3.981-40.468-5.618-57.175-5.285L3880,1083.351h57.624Z" transform="translate(-3880)" fill="#8b684a" opacity="0.15" style="mix-blend-mode:multiply;isolation:isolate"/></g><g transform="translate(3888.449)"><path d="M3891.136,0V859.393c3.188-6.642,6.633-13.538,9.5-20.524,14.1-51,30.851-107.116,30.851-107.116V0Z" transform="translate(-3890.537)" fill="#c5bcac"/><path d="M3902.023,795.853c-2.379,3.87-6.932,9.457-10.887,20.192v249.391l4.941-10.6,1.865,28.518h33.541v-351.6S3926.274,747.435,3902.023,795.853Z" transform="translate(-3890.537)" fill="#a29888"/><path d="M3891.136,1065.436v17.915l16.185-28.518Z" transform="translate(-3891.024)" fill="#80776b"/><path d="M3919.277,1054.833l-28.141,28.518h38.758Z" transform="translate(-3891.136)" fill="#6b635a"/><path d="M3944.667,0l-4.622,42.179-7.776,13.532L3942.9,43.248,3946.76,0Z" transform="translate(-3915.712)" fill="#362f29"/><path d="M3994.238,87.862l5.667,3.194-2.34,6.568-6.953-4.387Z" transform="translate(-3961.485)" fill="#80776b"/><path d="M3968.785,527.827c-.2-5.4-.16-10.959-.65-16.236-.157-1.684-2.682-1.569-3.568.312-.02.041-.043.08-.062.121a2.509,2.509,0,0,0-.217.151,21.766,21.766,0,0,0-3.324,3.707,8.819,8.819,0,0,0-2.209,3.995c-.012.027-.025.053-.037.08h.018c-.056.218-.116.434-.158.659-.373,1.97,1.034,2.353,2.411,1.717q.339.809.676,1.616-.335,2.364-.668,4.73c-.3,2.114,1.735,2.2,3.062.994q.2.476.4.951C3965.448,532.995,3968.876,530.337,3968.785,527.827Z" transform="translate(-3940.885)" fill="#a29888"/><path d="M3946.866,103.489c-4.516-1.092-9.082-1.987-13.58-3.138-1.424-.364-2.312,1.505-1.763,3.418.986,3.443,3.238,3.56,5.456,4.223l3.533,1.055a2.126,2.126,0,0,0,1.146.908,22.067,22.067,0,0,0,4.554.73C3948.938,110.959,3949.617,104.154,3946.866,103.489Z" transform="translate(-3928.595)" fill="#80776b"/><path d="M3980.491,816.422a10.248,10.248,0,0,0-3.82-.811c-.784-.033-1.335.564-1.626,1.386-.15.023-.3.048-.451.073-.116-.38-.229-.76-.344-1.14-.743-2.461-3.319-1.135-3.3,1.332.009,1.163.04,2.323-.031,3.482-.111,1.818,1.153,3.518,2.319,3.456,2.2-.117,4.4-.4,6.6-.607C3982.574,823.331,3983.193,817.7,3980.491,816.422Z" transform="translate(-3950.588)" fill="#e8decf" opacity="0.4"/></g></g></svg>