<svg xmlns="http://www.w3.org/2000/svg" xmlns:xlink="http://www.w3.org/1999/xlink" width="72.167" height="1083.351" viewBox="0 0 72.167 1083.351"><defs><clipPath id="a"><path d="M3952.166,1083.351H3880L3880.166,0h72Z" transform="translate(-3880)" fill="none"/></clipPath></defs><g transform="translate(-3880)"><g transform="translate(3880)"><path d="M3880.562.551l-.562,1082.8h72.166V.551Z" transform="translate(-3880)" fill="#5e4734"/><path d="M3952.166,277.5V0h-72L3880,1083.351h72.166V341.44l-6.569,8.87-22.355-23.622,22.355-17.754Z" transform="translate(-3880)" fill="#8b684a"/><g opacity="0.45"><g clip-path="url(#a)"><path d="M3743.309,91.492q-5.161,62.793-10.283,126.072-10.23,126.63-19.8,261.587c-6.435,89.222-12.944,177.225-19.874,259.962-6.864,83.545-14.337,159.6-21.3,242.17-3.5,41.059-6.843,83.994-10.1,127.974-3.288,43.639-6.494,88.261-9.655,133.408-6.307,90.459-12.442,182.984-18.018,281.858l.48,5.57c3.709-38.577,7.271-78.824,10.8-119.428,3.536-40.537,6.979-82.121,10.413-123.824,3.425-41.8,6.8-84.161,10.155-126.822q5.046-63.78,9.821-130.862c6.339-89.807,12.31-184.309,18.892-271.3,3.3-43.346,6.708-85.4,10.177-126.607.865-10.331,1.741-20.519,2.624-30.638l2.677-29.935c1.776-20.068,3.6-39.518,5.4-59.267l5.421-58.9,2.735-29.107,2.7-29.491c3.622-39.081,7.1-80.043,10.672-119.723q5.363-59.413,10.674-119.47l1.758-19.64V16.938C3747.523,41.357,3745.385,66.019,3743.309,91.492Z" transform="translate(-3749.116)" fill="#5e4734"/><path d="M3931.583-461.512c-4.121,30.889-8.167,63.466-12.185,96.727-2.019,16.475-3.932,34.556-5.88,52.2-1.939,17.738-3.891,35.348-5.805,53.534-3.893,35.489-7.583,73.832-11.314,111.721-1.865,18.948-3.711,38.181-5.559,57.4-1.835,19.364-3.614,39.526-5.419,59.319-1.406,15.845-2.817,31.645-4.22,47.545V135.082l3.58-39.992q2.658-29.94,5.286-60.3l5.225-61.172c1.758-20.111,3.519-40.213,5.26-60.6l5.22-61.259,2.592-30.919L3911-209.342c3.522-40.181,6.973-81.655,10.468-122.492,3.545-40,7.06-80.687,10.5-123.06Z" transform="translate(-3880.64)" fill="#5e4734"/><path d="M3762.751,513.521c-6.348,78.462-12.681,157.1-18.958,236.439-6.258,79.591-12.523,159.082-18.7,239.706q-9.3,120.476-18.442,242.775l-9.1,122.9-4.533,61.618-4.484,62.2,4.784-58.537,4.758-58.84,9.538-117.4,19.008-235.544,19.01-235.421c6.336-78.462,12.67-156.952,19.049-234.844q6.918-85.389,13.893-170.011V321.914Q3770.618,417.107,3762.751,513.521Z" transform="translate(-3778.02)" fill="#5e4734"/><path d="M3935.248-266.6c-3.629,32.589-7.152,66.96-10.633,101.928-6.93,70.461-13.666,143.795-20.307,218.4-6.658,74.383-13.17,150.767-19.671,227.248q-1.721,20.429-3.436,40.942v46.652q2.621-31.821,5.246-63.562c6.386-77.784,12.85-154.479,19.32-231.1,3.24-38.23,6.512-76.01,9.789-113.745s6.583-75,9.932-111.675c3.337-36.856,6.714-73.132,10.2-107.664,1.736-17.4,3.518-34,5.33-50.083,1.812-16.045,3.675-31.373,5.688-43.267C3942.573-331.379,3938.881-298.8,3935.248-266.6Z" transform="translate(-3880.64)" fill="#5e4734"/><path d="M3674.116,1463.928s175.352-1867.494,221.768-2134.28" transform="translate(-3770.335)" fill="none" stroke="#5e4734" stroke-miterlimit="10" stroke-width="3"/><path d="M3811.489,752.778q-12.638,131.246-24.825,269.341-6.1,68.93-12.035,140.222c-1.981,23.732-3.946,47.681-5.889,72-.976,12.084-1.938,24.422-2.9,36.751l-1.432,18.81-.714,9.8-.179,2.469c-.065.946-.1,1.343-.2,2.857-.164,2.591-.323,5.28-.473,8l2.443,16c.061-.649.113-1.333.159-2.114.007-.216.091-1.329.137-2l.165-2.312.66-9.258,1.384-18.561c.939-12.291,1.876-24.591,2.836-36.717q2.856-36.539,5.789-72.3c3.9-47.722,7.853-94.883,11.867-141.207q12.012-139.338,24.526-271.8,2.663-28.272,5.348-56.225V684.267Q3814.81,718.3,3811.489,752.778Z" transform="translate(-3817.597)" fill="#5e4734"/><path d="M4032.88-517.17l-3.726,21.221-3.692,22.17-7.379,44.452-7.308,46.269-3.654,23.177-3.62,23.991-7.233,48.143-7.164,49.782-3.582,24.919-3.545,25.713-7.088,51.508-7.021,52.944c-2.35,17.454-4.662,35.694-6.979,53.828-2.311,18.251-4.649,35.969-6.939,54.662-9.217,73.6-18.28,150.219-27.252,228.52Q3903.38,459.3,3881.2,684.267v32.276q22.492-234.455,46.287-448.232c8.89-79.345,17.876-157.038,27.018-231.755,2.271-18.972,4.59-36.969,6.883-55.5,2.3-18.418,4.592-36.942,6.925-54.682l6.969-53.812,7.038-52.387,3.52-26.158,3.557-25.367,7.116-50.687L4003.7-331.1l3.6-24.456,3.632-23.643,7.266-47.214,7.339-45.41,3.672-22.654,3.707-21.708,7.417-43.419Z" transform="translate(-3880.64)" fill="#5e4734"/></g></g><path d="M3880.354,0l.4,211.985c10.883-12.829,17.788-24.762,71.417-18.1V0Z" transform="translate(-3880)" fill="#e2c9ad" opacity="0.24"/><path d="M3952.167,823.622c-27.09-3.981-50.681-5.618-71.6-5.285L3880,1083.351h72.167Z" transform="translate(-3880)" fill="#8b684a" opacity="0.15" style="mix-blend-mode:multiply;isolation:isolate"/></g><g transform="translate(3888.449)"><path d="M3891.136,0V859.393c4.337-6.642,9.024-13.538,12.918-20.524,19.188-51,41.972-107.116,41.972-107.116V0Z" transform="translate(-3890.537)" fill="#c5bcac"/><path d="M3905.947,795.853c-3.237,3.87-9.431,9.457-14.811,20.192v249.391l6.722-10.6,2.537,28.518h45.631v-351.6S3938.939,747.435,3905.947,795.853Z" transform="translate(-3890.537)" fill="#a29888"/><path d="M3891.136,1065.436v17.915l16.185-28.518Z" transform="translate(-3891.024)" fill="#80776b"/><path d="M3929.837,1054.833l-38.7,28.518h53.3Z" transform="translate(-3891.136)" fill="#6b635a"/><path d="M3944.667,0l-4.622,42.179-7.776,13.532L3942.9,43.248,3946.76,0Z" transform="translate(-3906.609)" fill="#362f29"/><path d="M3994.238,87.862l5.667,3.194-2.34,6.568-6.953-4.387Z" transform="translate(-3946.942)" fill="#80776b"/><path d="M3968.785,527.827c-.2-5.4-.16-10.959-.65-16.236-.157-1.684-2.682-1.569-3.568.312-.02.041-.043.08-.062.121a2.509,2.509,0,0,0-.217.151,21.766,21.766,0,0,0-3.324,3.707,8.819,8.819,0,0,0-2.209,3.995c-.012.027-.025.053-.037.08h.018c-.056.218-.116.434-.158.659-.373,1.97,1.034,2.353,2.411,1.717q.339.809.676,1.616-.335,2.364-.668,4.73c-.3,2.114,1.735,2.2,3.062.994q.2.476.4.951C3965.448,532.995,3968.876,530.337,3968.785,527.827Z" transform="translate(-3932.526)" fill="#a29888"/><path d="M3946.866,103.489c-4.516-1.092-9.082-1.987-13.58-3.138-1.424-.364-2.312,1.505-1.763,3.418.986,3.443,3.238,3.56,5.456,4.223l3.533,1.055a2.126,2.126,0,0,0,1.146.908,22.067,22.067,0,0,0,4.554.73C3948.938,110.959,3949.617,104.154,3946.866,103.489Z" transform="translate(-3928.595)" fill="#80776b"/><path d="M3980.491,816.422a10.248,10.248,0,0,0-3.82-.811c-.784-.033-1.335.564-1.626,1.386-.15.023-.3.048-.451.073-.116-.38-.229-.76-.344-1.14-.743-2.461-3.319-1.135-3.3,1.332.009,1.163.04,2.323-.031,3.482-.111,1.818,1.153,3.518,2.319,3.456,2.2-.117,4.4-.4,6.6-.607C3982.574,823.331,3983.193,817.7,3980.491,816.422Z" transform="translate(-3940.611)" fill="#e8decf" opacity="0.4"/></g></g></svg>