<svg xmlns="http://www.w3.org/2000/svg" width="43" height="43" viewBox="0 0 43 43"><g transform="translate(-3951 -367.41)"><rect width="43" height="43" transform="translate(3951 367.41)" fill="none"/><g transform="translate(9.298 -63.352)"><path d="M3953.674,434.321a12.123,12.123,0,0,0,8.575,20.7h0a12.129,12.129,0,1,0-8.579-20.7Z" transform="translate(1.36)" fill="#726b62"/><path d="M3972.8,445.262a1.6,1.6,0,0,0-2.06-.09c-.071.054-7.2,5.406-13.816.014a1.6,1.6,0,0,0-2.066.033c-.264.229-6.465,5.739-6.619,16.546a1.608,1.608,0,0,0,1.6,1.628h0l27.521-.007a1.6,1.6,0,0,0,1.6-1.551C3978.986,461.4,3979.247,451.161,3972.8,445.262Z" transform="translate(0 10.196)" fill="#726b62"/></g></g></svg>