<svg xmlns="http://www.w3.org/2000/svg" width="43" height="43" viewBox="0 0 43 43"><g transform="translate(-3936.968 -310.424)"><path d="M3975.919,322.729c-1.828,0-3.655,0-5.587,0v21.413q2.851,0,5.7,0c1.365,0,1.459-.1,1.46-1.5q.006-9.193,0-18.387C3977.5,322.887,3977.331,322.73,3975.919,322.729Z" transform="translate(2.468 9.281)" fill="#726b62"/><path d="M3938.411,322.724c-1.061-.025-1.449.368-1.443,1.458.039,6.166.015,12.333.017,18.5,0,1.375.089,1.461,1.488,1.461h5.667V322.737C3942.159,322.737,3940.284,322.769,3938.411,322.724Z" transform="translate(0 9.281)" fill="#726b62"/><path d="M3972.169,320.643a2.735,2.735,0,0,0-.853-1.81q-5.911-4.2-11.932-8.186a1.855,1.855,0,0,0-1.782.01c-3.944,2.6-7.829,5.328-11.755,7.965a2.368,2.368,0,0,0-1.069,2.339c.066,1.668.017,3.341.017,5.165v27.3h9.8V339.876h7.84v13.547h9.777V326.116C3972.21,324.17,3972.286,322.4,3972.169,320.643Zm-13.714,9.981c-2.156-.01-3.9-2.084-3.865-4.6a4.236,4.236,0,0,1,3.908-4.42c2.166,0,3.96,2.071,3.941,4.544A4.261,4.261,0,0,1,3958.455,330.624Z" transform="translate(0 0)" fill="#726b62"/></g></svg>