<svg xmlns="http://www.w3.org/2000/svg" width="43" height="43" viewBox="0 0 43 43"><g transform="translate(-6958.95 174.682)"><g transform="translate(3 3)"><g transform="translate(6956.95 -177.682)"><path d="M6956.95-177.68v37.758h37.758V-177.68Zm7.139,37.6a1.409,1.409,0,0,1-1.4-1.423c.131-9.492,5.583-14.33,5.812-14.532a1.408,1.408,0,0,1,1.817-.026c5.8,4.733,12.066.035,12.127-.018a1.418,1.418,0,0,1,1.809.079,14.831,14.831,0,0,1,3.408,4.768h-4.241a1.822,1.822,0,0,0-1.819,1.818v6.366a1.787,1.787,0,0,0,.538,1.291l1.677,1.677Z" transform="translate(-6956.95 177.682)" fill="none"/><g transform="translate(5.743)"><path d="M6969.852-174.558a10.645,10.645,0,0,0-.009,15.054,10.648,10.648,0,0,0,7.539,3.122h0a10.651,10.651,0,0,0,10.653-10.648,10.65,10.65,0,0,0-10.647-10.653,10.649,10.649,0,0,0-7.54,3.124Z" transform="translate(-6963.885 177.682)" fill="#706b62"/><path d="M6982.939-138.8l1.677,1.677h-19.731a1.412,1.412,0,0,1-1.4-1.423c.133-9.492,5.585-14.33,5.814-14.532a1.408,1.408,0,0,1,1.817-.026c5.8,4.733,12.064.035,12.126-.018a1.42,1.42,0,0,1,1.81.079,14.86,14.86,0,0,1,3.406,4.768h-4.241a1.822,1.822,0,0,0-1.818,1.818v6.366A1.789,1.789,0,0,0,6982.939-138.8Z" transform="translate(-6963.489 174.725)" fill="#706b62"/></g></g><g transform="translate(6982.533 -150.435)"><g transform="translate(0 0)"><path d="M7001.374-139.11l-3.945-3.938-3.14-3.139a1.575,1.575,0,0,0-1.118-.464h-5.512a1.577,1.577,0,0,0-1.573,1.574v5.512a1.551,1.551,0,0,0,.463,1.118L6988-137l.136.137,5.5,5.5a1.591,1.591,0,0,0,1.109.464,1.6,1.6,0,0,0,1.119-.464l5.511-5.512a1.605,1.605,0,0,0,.464-1.118A1.607,1.607,0,0,0,7001.374-139.11Zm-13.715-4.789a1.179,1.179,0,0,1,1.179-1.178,1.186,1.186,0,0,1,1.186,1.178,1.187,1.187,0,0,1-1.186,1.185A1.181,1.181,0,0,1,6987.658-143.9Z" transform="translate(-6986.085 146.652)" fill="#706b62"/></g></g></g><rect width="43" height="43" transform="translate(6958.95 -174.682)" fill="none"/></g></svg>