<svg xmlns="http://www.w3.org/2000/svg" width="43" height="43" viewBox="0 0 43 43"><g transform="translate(-3937 -412.41)"><rect width="43" height="43" transform="translate(3937 412.41)" fill="none"/><g transform="translate(0.032 -9.352)"><g transform="translate(3948.977 430.762)"><path d="M3952.314,432.959a7.486,7.486,0,0,0,5.295,12.781h0a7.489,7.489,0,1,0-5.3-12.781Z" transform="translate(-3948.121 -430.762)" fill="#726b62"/><path d="M3963.408,445.094a.988.988,0,0,0-1.272-.055c-.043.033-4.442,3.338-8.53.009a.99.99,0,0,0-1.276.02,14.116,14.116,0,0,0-4.087,10.216.993.993,0,0,0,.991,1.005h0l16.992,0a.991.991,0,0,0,.99-.957C3967.225,455.061,3967.386,448.737,3963.408,445.094Z" transform="translate(-3948.243 -429.847)" fill="#726b62"/></g><g transform="translate(3936.968 434.847)"><path d="M3971.279,445.337h0a5.368,5.368,0,1,0-5.372-5.368A5.326,5.326,0,0,0,3971.28,445.337Z" transform="translate(-3935.084 -434.597)" fill="#726b62"/><path d="M3975.367,444.875a.711.711,0,0,0-.913-.039c-.031.023-3.186,2.394-6.117.005a.712.712,0,0,0-.916.015,8.851,8.851,0,0,0-1.756,2.445,17,17,0,0,1,1.68,5.6l10.044,0a.711.711,0,0,0,.709-.688C3978.1,452.023,3978.219,447.487,3975.367,444.875Z" transform="translate(-3935.1 -433.941)" fill="#726b62"/><path d="M3943.685,445.337h0a5.368,5.368,0,1,0-5.372-5.368A5.326,5.326,0,0,0,3943.686,445.337Z" transform="translate(-3936.881 -434.597)" fill="#726b62"/><path d="M3947.844,444.875a.71.71,0,0,0-.913-.039c-.031.023-3.186,2.394-6.117.005a.712.712,0,0,0-.916.015,10.128,10.128,0,0,0-2.931,7.327.712.712,0,0,0,.71.721h0l10.075,0a16.3,16.3,0,0,1,1.834-5.552A7.515,7.515,0,0,0,3947.844,444.875Z" transform="translate(-3936.968 -433.941)" fill="#726b62"/></g></g></g></svg>