<svg xmlns="http://www.w3.org/2000/svg" width="43" height="43" viewBox="0 0 43 43"><g transform="translate(-3936.552 -868.79)"><path d="M3936.552,901.678v9.646a1.569,1.569,0,0,0,1.6,1.527h39.794a1.568,1.568,0,0,0,1.6-1.527v-9.646a1.569,1.569,0,0,0-1.6-1.528h-3.917a1.567,1.567,0,0,0-1.6,1.528v4.38h-28.753v-4.38a1.569,1.569,0,0,0-1.6-1.528h-3.918A1.569,1.569,0,0,0,3936.552,901.678Z" transform="translate(0 -1.061)" fill="#726b62"/><path d="M3951.175,875.226h11.7a1.629,1.629,0,0,0,1.628-1.628v-3.18a1.629,1.629,0,0,0-1.628-1.628h-11.7a1.629,1.629,0,0,0-1.627,1.628v3.18A1.63,1.63,0,0,0,3951.175,875.226Z" transform="translate(1.026)" fill="#726b62"/><path d="M3949.989,883.985h-6.365a2.525,2.525,0,0,0-2.321,1.207,1.522,1.522,0,0,0,.28,1.741l7.213,7.943h0l7.216,7.942a2.733,2.733,0,0,0,2.039.8h0a2.732,2.732,0,0,0,2.041-.8l14.43-15.885a1.523,1.523,0,0,0,.278-1.741,2.518,2.518,0,0,0-2.319-1.207H3965.9v-5.637a1.58,1.58,0,0,0-1.624-1.528h-12.662a1.58,1.58,0,0,0-1.624,1.528Z" transform="translate(0 -0.493)" fill="#726b62"/></g></svg>