<svg xmlns="http://www.w3.org/2000/svg" width="43" height="43" viewBox="0 0 43 43"><g transform="translate(-3940.054 -179.062)"><path d="M3952.292,179.7a.653.653,0,0,0-.277-.545.523.523,0,0,0-.563-.02l-11.087,6.4a.649.649,0,0,0-.31.566v35.329a.652.652,0,0,0,.278.544.529.529,0,0,0,.563.02l11.086-6.4a.649.649,0,0,0,.31-.565Z" transform="translate(0 0)" fill="#726b62"/><path d="M3951.96,215.028a.641.641,0,0,0,.337.566l12.063,6.4a.619.619,0,0,0,.613-.02.638.638,0,0,0,.3-.545V186.1a.639.639,0,0,0-.337-.565l-12.063-6.4a.613.613,0,0,0-.614.02.639.639,0,0,0-.3.544Z" transform="translate(1.667 0)" fill="#726b62"/><path d="M3963.747,186.1v35.329a.632.632,0,0,0,.33.544.734.734,0,0,0,.672.02l7.549-3.654.148-.073,2.332-1.129.408-.2,2.776-1.344a.635.635,0,0,0,.37-.565V179.7a.63.63,0,0,0-.33-.545.728.728,0,0,0-.673-.02l-13.212,6.4A.634.634,0,0,0,3963.747,186.1Z" transform="translate(4.722 0)" fill="#726b62"/></g></svg>