<svg xmlns="http://www.w3.org/2000/svg" width="20.906" height="23.681" viewBox="0 0 20.906 23.681"><path d="M3791.841,2127.853v-7.332a1.553,1.553,0,0,1,1.9-1.128v-.593c0-2.213.01-4.425-.007-6.638a1.233,1.233,0,0,1,.681-1.252h11.592c.1.107.205.21.3.32,1.432,1.639,2.87,3.273,4.285,4.927a1.239,1.239,0,0,1,.237.718c.028.82.011,1.641.011,2.519a1.551,1.551,0,0,1,1.9,1.127v7.233a1.551,1.551,0,0,1-1.9,1.186c0,1.5-.014,2.95.007,4.4a1.229,1.229,0,0,1-.681,1.253h-15.753a1.207,1.207,0,0,1-.679-1.245c.026-.787.006-1.576.006-2.365v-2.049A1.6,1.6,0,0,1,3791.841,2127.853Zm2.856-8.5h15.2v-2.3h-3.529c-.962,0-.982-.02-.982-.957,0-1.237,0-2.475,0-3.712,0-.175-.016-.351-.025-.543H3794.7Zm15.193,14.028v-4.42h-15.2v4.42Z" transform="translate(-3791.841 -2110.91)" fill="#fff"/></svg>