<svg xmlns="http://www.w3.org/2000/svg" width="43" height="43" viewBox="0 0 43 43"><path d="M3958.416,675.2a21.5,21.5,0,1,0,21.5,21.5A21.5,21.5,0,0,0,3958.416,675.2Zm3.266,34.289h-7.462V703.62h7.462Zm4.233-14.045c-.871.7-1.9,1.548-2.74,2.3a4.524,4.524,0,0,0-1.493,3.367v.494h-7.3s-.384-3.939.961-5.092,8.754-4.729,5-8.168c-2.457-2.248-4.9,1.73-4.9,3.363l-7.206-.1a11.2,11.2,0,0,1,5.092-7.975c4.709-2.979,10.954-1.826,13.932,2.21q.14.189.264.378A6.983,6.983,0,0,1,3965.914,695.44Z" transform="translate(-3936.916 -675.197)" fill="#726b62"/></svg>