<svg xmlns="http://www.w3.org/2000/svg" width="43" height="43" viewBox="0 0 43 43"><g transform="translate(-7082.37 174.06)"><rect width="43" height="43" transform="translate(7082.37 -174.06)" fill="none"/><g transform="translate(-15.219 1.43)"><path d="M7131.57-175.49h-25.149a2.834,2.834,0,0,0-2.83,2.83v37.33a2.836,2.836,0,0,0,2.83,2.84h25.149a2.838,2.838,0,0,0,2.84-2.84v-37.33A2.836,2.836,0,0,0,7131.57-175.49Zm-18.9,2.06h12.661a1.315,1.315,0,0,1,1.31,1.31,1.308,1.308,0,0,1-1.31,1.31H7112.67a1.309,1.309,0,0,1-1.31-1.31A1.315,1.315,0,0,1,7112.67-173.43Zm12.36,23.83a6,6,0,0,1-1.77,4.26,6.051,6.051,0,0,1-4.26,1.76,6.007,6.007,0,0,1-4.27-1.77,6.009,6.009,0,0,1,.01-8.51,6,6,0,0,1,4.26-1.77A6.031,6.031,0,0,1,7125.031-149.6Zm1.61,14.47a.812.812,0,0,1-.8.78h-13.689a.809.809,0,0,1-.791-.81,11.361,11.361,0,0,1,3.29-8.22.8.8,0,0,1,1.03-.02c3.291,2.68,6.83.02,6.86-.01a.814.814,0,0,1,1.03.05C7126.771-140.43,7126.641-135.34,7126.641-135.13Z" transform="translate(-0.001 0)" fill="#706b62"/></g></g></svg>