<svg xmlns="http://www.w3.org/2000/svg" width="43" height="43" viewBox="0 0 43 43"><path d="M3978.262,126.858a2.166,2.166,0,0,0-.169-3.03l-19.216-17.368a2.337,2.337,0,0,0-3.125.036l-19.283,18.259a2.155,2.155,0,0,0-.093,3.026l.484.52a2.062,2.062,0,0,0,2.895.229l1.441-1.333v19.516a2.132,2.132,0,0,0,2.1,2.166h7.516a2.131,2.131,0,0,0,2.1-2.166V133.058h9.587v13.653a2.021,2.021,0,0,0,1.971,2.166h7.966a2.133,2.133,0,0,0,2.1-2.167v-19.24l.889.806c.489.444,1.519.088,2.3-.8Z" transform="translate(-3935.8 -105.878)" fill="#726b62"/></svg>