<svg xmlns="http://www.w3.org/2000/svg" width="43" height="42.997" viewBox="0 0 43 42.997"><g transform="translate(-7023.72 172.515)"><path d="M7063.682-147.575h-8.543a1.354,1.354,0,0,0-1.364,1.344v6.259a1.623,1.623,0,0,1-1.718,1.491h-13.439a1.639,1.639,0,0,1-1.728-1.491v-6.259a1.354,1.354,0,0,0-1.364-1.344h-8.758a2.887,2.887,0,0,0-3.048,2.7v11.23a2.887,2.887,0,0,0,3.048,2.7h36.914a2.884,2.884,0,0,0,3.038-2.7v-11.23A2.884,2.884,0,0,0,7063.682-147.575Zm-6.719,13.98a1,1,0,0,1-1.009-.994,1.009,1.009,0,0,1,1.009-1,1.011,1.011,0,0,1,1.02,1A1,1,0,0,1,7056.963-133.6Zm3.081,0a1,1,0,0,1-1.009-.994,1.009,1.009,0,0,1,1.009-1,1.012,1.012,0,0,1,1.02,1A1,1,0,0,1,7060.043-133.6Zm3.081,0a1,1,0,0,1-1.009-.994,1.009,1.009,0,0,1,1.009-1,1.018,1.018,0,0,1,1.019,1A1.01,1.01,0,0,1,7063.125-133.6Z" transform="translate(0 1.434)" fill="#706b62"/><g transform="translate(7030.612 -172.515)"><path d="M7051.509-155.789h5.5a2.189,2.189,0,0,0,2.009-1.028,1.284,1.284,0,0,0-.241-1.48l-6.24-6.768h0l-6.239-6.768a2.386,2.386,0,0,0-1.763-.68h0a2.384,2.384,0,0,0-1.764.68L7030.313-158.3a1.285,1.285,0,0,0-.242,1.48,2.189,2.189,0,0,0,2.01,1.028h5.681v15.966a1.359,1.359,0,0,0,1.4,1.3h10.944a1.357,1.357,0,0,0,1.4-1.3Z" transform="translate(-7029.936 172.515)" fill="#706b62"/></g></g></svg>