<svg xmlns="http://www.w3.org/2000/svg" width="43" height="43" viewBox="0 0 43 43"><g transform="translate(-3938.259 -949.115)"><path d="M3959.526,949.115h-19.74a1.568,1.568,0,0,0-1.527,1.6v39.794a1.568,1.568,0,0,0,1.527,1.6h19.74a1.569,1.569,0,0,0,1.527-1.6v-3.918a1.567,1.567,0,0,0-1.527-1.6h-14.475V956.238h14.475a1.568,1.568,0,0,0,1.527-1.6v-3.918A1.568,1.568,0,0,0,3959.526,949.115Z" transform="translate(0 0)" fill="#726b62"/><path d="M3961.822,977.2v5.2a2.07,2.07,0,0,0,.972,1.9,1.213,1.213,0,0,0,1.4-.228l6.4-5.9h0l6.4-5.9a2.255,2.255,0,0,0,.643-1.667h0a2.253,2.253,0,0,0-.643-1.668L3964.2,957.155a1.215,1.215,0,0,0-1.4-.228,2.068,2.068,0,0,0-.972,1.9V964.2h-9.85a1.284,1.284,0,0,0-1.231,1.328v10.348a1.283,1.283,0,0,0,1.231,1.327Z" transform="translate(3.624 0)" fill="#726b62"/></g></svg>