<svg xmlns="http://www.w3.org/2000/svg" width="43" height="43" viewBox="0 0 43 43"><g transform="translate(-3951 -367.41)"><rect width="43" height="43" transform="translate(3951 367.41)" fill="none"/><path d="M3980.291,384.336a.634.634,0,0,0-.047-1.181l-21.215-7.242a.623.623,0,0,0-.429.008c-7.264,2.75-19.191,7.134-20.3,7.2a.634.634,0,0,0-.247,1.216l5.514,2.391v2.659a1.738,1.738,0,0,0-1.021,2.751l-.726,4.3a.633.633,0,0,0,.625.74h2.971a.635.635,0,0,0,.627-.721l-.619-4.48a1.733,1.733,0,0,0-.591-2.37v-2.326l14.086,6.111a.632.632,0,0,0,.251.053.642.642,0,0,0,.253-.053ZM3959.172,394.6l-10.423-4.726V398.7a2.176,2.176,0,0,0,2.174,2.173h17.868a2.176,2.176,0,0,0,2.173-2.173v-9.4Z" transform="translate(13.329 1.532)" fill="#726b62"/></g></svg>