<svg xmlns="http://www.w3.org/2000/svg" xmlns:xlink="http://www.w3.org/1999/xlink" width="154.416" height="1083.351" viewBox="0 0 154.416 1083.351"><defs><clipPath id="a"><path d="M4034.416,1083.351H3880L3880.354,0h154.062Z" fill="none"/></clipPath></defs><g transform="translate(-3880)"><path d="M3881.2.551l-1.2,1082.8h154.416V.551Z" fill="#5e4734"/><path d="M4034.416,277.5V0H3880.354L3880,1083.351h154.416V341.44l-14.056,8.87-47.835-23.622,47.835-17.754Z" fill="#8b684a"/><g opacity="0.45"><g clip-path="url(#a)"><path d="M3867.576,91.492q-11.045,62.793-22,126.072-21.891,126.63-42.37,261.587c-13.767,89.222-27.695,177.225-42.525,259.962-14.687,83.545-30.677,159.6-45.57,242.17-7.484,41.059-14.643,83.994-21.618,127.974-7.034,43.639-13.9,88.261-20.659,133.408-13.5,90.459-26.623,182.984-38.553,281.858l1.026,5.57c7.938-38.577,15.559-78.824,23.11-119.428,7.565-40.537,14.933-82.121,22.281-123.824,7.329-41.8,14.555-84.161,21.729-126.822q10.8-63.78,21.014-130.862c13.562-89.807,26.34-184.309,40.424-271.3,7.065-43.346,14.351-85.4,21.776-126.607,1.851-10.331,3.727-20.519,5.613-30.638l5.728-29.935c3.8-20.068,7.7-39.518,11.55-59.267l11.6-58.9,5.851-29.107,5.785-29.491c7.75-39.081,15.2-80.043,22.836-119.723q11.475-59.413,22.839-119.47l3.761-19.64V16.938C3876.591,41.357,3872.017,66.019,3867.576,91.492Z" fill="#5e4734"/><path d="M3989-461.512c-8.819,30.889-17.476,63.466-26.071,96.727-4.321,16.475-8.415,34.556-12.581,52.2-4.151,17.738-8.326,35.348-12.423,53.534-8.329,35.489-16.225,73.832-24.209,111.721-3.991,18.948-7.94,38.181-11.893,57.4-3.927,19.364-7.732,39.526-11.594,59.319-3.01,15.845-6.028,31.645-9.031,47.545V135.082l7.659-39.992q5.687-29.94,11.312-60.3l11.179-61.172c3.763-20.111,7.529-40.213,11.254-60.6l11.169-61.259,5.546-30.919,5.645-30.186c7.537-40.181,14.92-81.655,22.4-122.492,7.584-40,15.107-80.687,22.468-123.06Z" fill="#5e4734"/><path d="M3847.33,513.521c-13.583,78.462-27.135,157.1-40.567,236.439-13.389,79.591-26.793,159.082-40,239.706q-19.891,120.476-39.462,242.775l-19.462,122.9-9.7,61.618-9.6,62.2,10.236-58.537,10.181-58.84,20.408-117.4,40.672-235.544,40.677-235.421c13.558-78.462,27.11-156.952,40.759-234.844q14.8-85.389,29.728-170.011V321.914Q3864.164,417.107,3847.33,513.521Z" fill="#5e4734"/><path d="M3996.846-266.6c-7.764,32.589-15.3,66.96-22.75,101.928-14.829,70.461-29.243,143.795-43.454,218.4-14.246,74.383-28.178,150.767-42.089,227.248q-3.683,20.429-7.351,40.942v46.652q5.607-31.821,11.226-63.562c13.663-77.784,27.5-154.479,41.339-231.1,6.934-38.23,13.936-76.01,20.945-113.745s14.088-75,21.253-111.675c7.138-36.856,14.365-73.132,21.825-107.664,3.714-17.4,7.527-34,11.405-50.083,3.878-16.045,7.863-31.373,12.172-43.267C4012.519-331.379,4004.62-298.8,3996.846-266.6Z" fill="#5e4734"/><path d="M3674.116,1463.928s375.2-1867.494,474.523-2134.28" fill="none" stroke="#5e4734" stroke-miterlimit="10" stroke-width="3"/><path d="M3866.93,752.778q-27.044,131.246-53.12,269.341-13.05,68.93-25.75,140.222c-4.239,23.732-8.444,47.681-12.6,72-2.088,12.084-4.145,24.422-6.2,36.751l-3.064,18.81-1.529,9.8-.382,2.469c-.14.946-.222,1.343-.424,2.857-.353,2.591-.693,5.28-1.013,8l5.226,16c.132-.649.243-1.333.341-2.114.015-.216.195-1.329.294-2l.351-2.312,1.414-9.258,2.96-18.561c2.01-12.291,4.017-24.591,6.069-36.717q6.112-36.539,12.388-72.3,12.525-71.583,25.391-141.207,25.7-139.338,52.478-271.8,5.7-28.272,11.445-56.225V684.267Q3874.035,718.3,3866.93,752.778Z" fill="#5e4734"/><path d="M4205.752-517.17l-7.973,21.221-7.9,22.17-15.79,44.452-15.639,46.269-7.817,23.177-7.745,23.991-15.478,48.143-15.329,49.782-7.663,24.919-7.586,25.713-15.167,51.508-15.023,52.944c-5.029,17.454-9.976,35.694-14.934,53.828-4.945,18.251-9.949,35.969-14.847,54.662-19.722,73.6-39.116,150.219-58.313,228.52Q3928.658,459.3,3881.2,684.267v32.276q48.125-234.455,99.042-448.232c19.022-79.345,38.249-157.038,57.81-231.755,4.859-18.972,9.823-36.969,14.729-55.5,4.92-18.418,9.828-36.942,14.818-54.682l14.912-53.812,15.057-52.387,7.533-26.158,7.61-25.367,15.227-50.687,15.38-49.062,7.7-24.456,7.771-23.643,15.548-47.214,15.7-45.41,7.857-22.654,7.933-21.708L4221.7-559.6Z" fill="#5e4734"/></g></g><path d="M3880.354,0l.848,211.985c23.347-12.829,38.162-24.762,153.213-18.1V0Z" fill="#e2c9ad" opacity="0.24"/><path d="M4034.416,823.622c-57.965-3.981-108.444-5.618-153.214-5.285l-1.2,265.014h154.416Z" fill="#8b684a" opacity="0.15" style="mix-blend-mode:multiply;isolation:isolate"/></g></svg>