<svg xmlns="http://www.w3.org/2000/svg" xmlns:xlink="http://www.w3.org/1999/xlink" width="207.15" height="1083.351" viewBox="0 0 207.15 1083.351"><defs><clipPath id="a"><path d="M4087.15,1083.351H3880L3880.475,0H4087.15Z" transform="translate(-3880)" fill="none"/></clipPath></defs><g transform="translate(-3880)"><g transform="translate(3880)"><path d="M3881.612.551,3880,1083.351h207.15V.551Z" transform="translate(-3880)" fill="#5e4734"/><path d="M4087.15,277.5V0H3880.475L3880,1083.351h207.15V341.44l-18.856,8.87-64.17-23.622,64.17-17.754Z" transform="translate(-3880)" fill="#8b684a"/><g opacity="0.45"><g clip-path="url(#a)"><path d="M3947.249,91.492q-14.815,62.793-29.517,126.072-29.367,126.63-56.84,261.587c-18.469,89.222-37.153,177.225-57.048,259.962-19.7,83.545-41.153,159.6-61.132,242.17-10.04,41.059-19.644,83.994-29,127.974-9.436,43.639-18.641,88.261-27.714,133.408-18.1,90.459-35.715,182.984-51.719,281.858l1.376,5.57c10.649-38.577,20.873-78.824,31-119.428,10.148-40.537,20.033-82.121,29.89-123.824q14.747-62.7,29.149-126.822,14.484-63.78,28.19-130.862c18.194-89.807,35.335-184.309,54.229-271.3,9.477-43.346,19.251-85.4,29.212-126.607,2.483-10.331,5-20.519,7.53-30.638l7.685-29.935c5.1-20.068,10.329-39.518,15.495-59.267l15.562-58.9,7.85-29.107,7.761-29.491c10.4-39.081,20.385-80.043,30.634-119.723q15.394-59.413,30.639-119.47l5.045-19.64V16.938C3959.343,41.357,3953.207,66.019,3947.249,91.492Z" transform="translate(-3963.916)" fill="#5e4734"/><path d="M4025.819-461.512c-11.831,30.889-23.444,63.466-34.975,96.727-5.8,16.475-11.289,34.556-16.877,52.2-5.569,17.738-11.169,35.348-16.666,53.534-11.174,35.489-21.766,73.832-32.477,111.721-5.354,18.948-10.652,38.181-15.955,57.4C3903.6-70.562,3898.5-50.4,3893.317-30.607c-4.038,15.845-8.086,31.645-12.115,47.545V135.082l10.275-39.992q7.629-29.94,15.175-60.3l15-61.172c5.048-20.111,10.1-40.213,15.1-60.6l14.983-61.259,7.44-30.919,7.572-30.186c10.111-40.181,20.016-81.655,30.046-122.492,10.174-40,20.266-80.687,30.141-123.06Z" transform="translate(-3879.589)" fill="#5e4734"/><path d="M3901.558,513.521c-18.222,78.462-36.4,157.1-54.421,236.439-17.962,79.591-35.943,159.082-53.663,239.706q-26.684,120.476-52.938,242.775l-26.109,122.9-13.013,61.618-12.873,62.2,13.731-58.537,13.658-58.84,27.377-117.4,54.563-235.544,54.568-235.421c18.188-78.462,36.368-156.952,54.679-234.844q19.858-85.389,39.879-170.011V321.914Q3924.14,417.107,3901.558,513.521Z" transform="translate(-3945.385)" fill="#5e4734"/><path d="M4036.339-266.6c-10.415,32.589-20.526,66.96-30.519,101.928-19.893,70.461-39.229,143.795-58.294,218.4-19.111,74.383-37.8,150.767-56.462,227.248q-4.941,20.429-9.862,40.942v46.652q7.522-31.821,15.06-63.562c18.329-77.784,36.887-154.479,55.457-231.1,9.3-38.23,18.7-76.01,28.1-113.745s18.9-75,28.511-111.675c9.576-36.856,19.271-73.132,29.278-107.664,4.983-17.4,10.1-34,15.3-50.083,5.2-16.045,10.549-31.373,16.329-43.267C4057.365-331.379,4046.769-298.8,4036.339-266.6Z" transform="translate(-3879.589)" fill="#5e4734"/><path d="M3674.116,1463.928s503.34-1867.494,636.577-2134.28" transform="translate(-3950.311)" fill="none" stroke="#5e4734" stroke-miterlimit="10" stroke-width="3"/><path d="M3902.475,752.778q-36.279,131.246-71.26,269.341-17.507,68.93-34.544,140.222c-5.687,23.732-11.328,47.681-16.9,72-2.8,12.084-5.56,24.422-8.321,36.751l-4.11,18.81-2.052,9.8-.512,2.469c-.188.946-.3,1.343-.569,2.857-.474,2.591-.93,5.28-1.359,8l7.011,16a21.406,21.406,0,0,0,.458-2.114c.02-.216.261-1.329.394-2l.471-2.312,1.9-9.258,3.971-18.561c2.7-12.291,5.389-24.591,8.142-36.717q8.2-36.539,16.619-72.3,16.8-71.583,34.062-141.207,34.482-139.338,70.4-271.8,7.646-28.272,15.354-56.225V684.267Q3912.007,718.3,3902.475,752.778Z" transform="translate(-3920.009)" fill="#5e4734"/><path d="M4316.588-517.17l-10.7,21.221-10.6,22.17-21.182,44.452-20.979,46.269-10.487,23.177-10.39,23.991-20.764,48.143-20.564,49.782-10.28,24.919-10.176,25.713-20.347,51.508-20.154,52.944c-6.746,17.454-13.383,35.694-20.034,53.828-6.633,18.251-13.346,35.969-19.917,54.662-26.458,73.6-52.474,150.219-78.228,228.52Q3944.864,459.3,3881.2,684.267v32.276q64.559-234.455,132.866-448.232c25.518-79.345,51.312-157.038,77.553-231.755,6.519-18.972,13.178-36.969,19.759-55.5,6.6-18.418,13.185-36.942,19.879-54.682l20-53.812,20.2-52.387,10.1-26.158,10.208-25.367,20.427-50.687,20.633-49.062,10.326-24.456,10.425-23.643,20.858-47.214,21.066-45.41,10.54-22.654,10.642-21.708L4337.98-559.6Z" transform="translate(-3879.589)" fill="#5e4734"/></g></g><path d="M3880.354,0l1.138,211.985c31.339-12.829,51.225-24.762,205.657-18.1V0Z" transform="translate(-3880)" fill="#e2c9ad" opacity="0.24"/><path d="M4087.15,823.622c-77.761-3.981-145.479-5.618-205.538-5.285L3880,1083.351h207.15Z" transform="translate(-3880)" fill="#8b684a" opacity="0.15" style="mix-blend-mode:multiply;isolation:isolate"/></g><g transform="translate(3899.055)"><path d="M3891.136,0V40.729c12.1-12.126,28.872-25.911,48.855-40.729Z" transform="translate(-3891.136)" fill="#e8decf" opacity="0.82"/><path d="M3953.632,0c-24.641,14.285-46.217,27.307-62.5,38.5V859.393c13.359-6.642,27.792-13.538,39.786-20.524,59.093-51,129.253-107.116,129.253-107.116V0Z" transform="translate(-3891.136)" fill="#c5bcac"/><path d="M3936.75,795.853c-9.969,3.87-29.045,9.457-45.613,20.192v249.391l20.7-10.6,7.81,28.518h140.525v-351.6S4038.355,747.435,3936.75,795.853Z" transform="translate(-3891.136)" fill="#a29888"/><path d="M3891.136,1065.436v17.915l16.185-28.518Z" transform="translate(-3891.136)" fill="#80776b"/><path d="M3907.321,1054.833l-16.185,28.518h22.291Z" transform="translate(-3891.136)" fill="#6b635a"/><path d="M3985.968,0l-20.019,42.179L3932.27,55.711l46.06-12.463L3995.034,0Z" transform="translate(-3869.261)" fill="#362f29"/><path d="M3994.238,87.862l5.667,3.194-2.34,6.568-6.953-4.387Z" transform="translate(-3861.26)" fill="#80776b"/><path d="M3968.785,527.827c-.2-5.4-.16-10.959-.65-16.236-.157-1.684-2.682-1.569-3.568.312-.02.041-.043.08-.062.121a2.509,2.509,0,0,0-.217.151,21.766,21.766,0,0,0-3.324,3.707,8.819,8.819,0,0,0-2.209,3.995c-.012.027-.025.053-.037.08h.018c-.056.218-.116.434-.158.659-.373,1.97,1.034,2.353,2.411,1.717q.339.809.676,1.616-.335,2.364-.668,4.73c-.3,2.114,1.735,2.2,3.062.994q.2.476.4.951C3965.448,532.995,3968.876,530.337,3968.785,527.827Z" transform="translate(-3870.737)" fill="#a29888"/><path d="M3946.866,103.489c-4.516-1.092-9.082-1.987-13.58-3.138-1.424-.364-2.312,1.505-1.763,3.418.986,3.443,3.238,3.56,5.456,4.223l3.533,1.055a2.126,2.126,0,0,0,1.146.908,22.067,22.067,0,0,0,4.554.73C3948.938,110.959,3949.617,104.154,3946.866,103.489Z" transform="translate(-3878.217)" fill="#80776b"/><path d="M3980.491,816.422a10.248,10.248,0,0,0-3.82-.811c-.784-.033-1.335.564-1.626,1.386-.15.023-.3.048-.451.073-.116-.38-.229-.76-.344-1.14-.743-2.461-3.319-1.135-3.3,1.332.009,1.163.04,2.323-.031,3.482-.111,1.818,1.153,3.518,2.319,3.456,2.2-.117,4.4-.4,6.6-.607C3982.574,823.331,3983.193,817.7,3980.491,816.422Z" transform="translate(-3866.774)" fill="#e8decf" opacity="0.4"/></g></g></svg>