<svg xmlns="http://www.w3.org/2000/svg" xmlns:xlink="http://www.w3.org/1999/xlink" width="207.15" height="1911" viewBox="0 0 207.15 1911"><defs><clipPath id="a"><path d="M4087.15,1911H3880l.475-1911H4087.15Z" transform="translate(-3880)" fill="none"/></clipPath></defs><g transform="translate(-3880)"><g transform="translate(3880)"><path d="M3881.612.551,3880,1911h207.15V.551Z" transform="translate(-3880 0)" fill="#5e4734"/><path d="M4087.15,489.5V0H3880.475L3880,1911h207.15V602.29l-18.856,15.647-64.17-41.669,64.17-31.318Z" transform="translate(-3880)" fill="#8b684a"/><g opacity="0.45"><g clip-path="url(#a)"><path d="M3947.249,148.449q-14.815,110.765-29.517,222.387-29.367,223.372-56.84,461.432c-18.469,157.385-37.153,312.62-57.048,458.565-19.7,147.371-41.153,281.535-61.132,427.181-10.04,72.427-19.644,148.163-29,225.742-9.436,76.978-18.641,155.69-27.714,235.328-18.1,159.567-35.715,322.779-51.719,497.189l1.376,9.825c10.649-68.049,20.873-139.043,31-210.667,10.148-71.506,20.033-144.859,29.89-218.422,9.832-73.739,19.525-148.457,29.149-223.71q14.484-112.506,28.19-230.837c18.194-158.417,35.335-325.116,54.229-478.567,9.477-76.461,19.251-150.64,29.212-223.331,2.483-18.224,5-36.195,7.53-54.045l7.685-52.8c5.1-35.4,10.329-69.709,15.495-104.545L3883.6,785.28l7.85-51.344,7.761-52.021c10.4-68.938,20.385-141.194,30.634-211.188q15.394-104.8,30.639-210.742l5.045-34.644V16.938C3959.343,60.012,3953.207,103.515,3947.249,148.449Z" transform="translate(-3963.916 12.94)" fill="#5e4734"/><path d="M4025.819-461.512c-11.831,54.487-23.444,111.952-34.975,170.624-5.8,29.061-11.289,60.956-16.877,92.078-5.569,31.289-11.169,62.353-16.666,94.432-11.174,62.6-21.766,130.238-32.477,197.073-5.354,33.424-10.652,67.35-15.955,101.261-5.268,34.158-10.372,69.723-15.553,104.637-4.038,27.95-8.086,55.821-12.115,83.868v208.4l10.275-70.545q7.629-52.813,15.175-106.36l15-107.906c5.048-35.475,10.1-70.935,15.1-106.9L3951.729,91.1l7.44-54.54,7.572-53.247c10.111-70.878,20.016-144.037,30.046-216.072,10.174-70.562,20.266-142.329,30.141-217.074Z" transform="translate(-3879.589 -352.582)" fill="#5e4734"/><path d="M3901.558,659.9c-18.222,138.4-36.4,277.122-54.421,417.072-17.962,140.4-35.943,280.616-53.663,422.834q-26.684,212.515-52.938,428.248l-26.109,216.8-13.013,108.692-12.873,109.714L3702.272,2260l13.658-103.792,27.377-207.081,54.563-415.493,54.568-415.276c18.188-138.4,36.368-276.859,54.679-414.258Q3926.975,553.477,3947,404.207V321.914Q3924.14,489.832,3901.558,659.9Z" transform="translate(-3945.385 245.933)" fill="#5e4734"/><path d="M4036.339-200.96c-10.415,57.486-20.526,118.115-30.519,179.8-19.893,124.291-39.229,253.65-58.294,385.251-19.111,131.209-37.8,265.949-56.462,400.859q-4.941,36.035-9.862,72.221v82.293q7.522-56.131,15.06-112.122c18.329-137.209,36.887-272.5,55.457-407.652,9.3-67.437,18.7-134.079,28.1-200.643q14.1-99.882,28.511-196.991c9.576-65.013,19.271-129,29.278-189.916,4.983-30.686,10.1-59.97,15.3-88.345,5.2-28.3,10.549-55.341,16.329-76.322C4057.365-315.221,4046.769-257.744,4036.339-200.96Z" transform="translate(-3879.589 -269.322)" fill="#5e4734"/><path d="M3674.116,3094.456s503.34-3294.206,636.577-3764.808" transform="translate(-3950.311 -512.13)" fill="none" stroke="#5e4734" stroke-miterlimit="10" stroke-width="3"/><path d="M3902.475,805.118q-36.279,231.513-71.26,475.11-17.507,121.59-34.544,247.348c-5.687,41.863-11.328,84.108-16.9,127.011-2.8,21.316-5.56,43.08-8.321,64.828l-4.11,33.18-2.052,17.291-.512,4.355c-.188,1.669-.3,2.369-.569,5.04-.474,4.57-.93,9.314-1.359,14.115l7.011,28.222c.177-1.145.326-2.351.458-3.729.02-.381.261-2.344.394-3.53l.471-4.078,1.9-16.331,3.971-32.741c2.7-21.681,5.389-43.378,8.142-64.768q8.2-64.453,16.619-127.53c11.2-84.18,22.541-167.371,34.062-249.085q34.482-245.788,70.4-479.446,7.646-49.871,15.354-99.179V684.267Q3912.007,744.3,3902.475,805.118Z" transform="translate(-3920.009 522.76)" fill="#5e4734"/><path d="M4316.588-484.751l-10.7,37.433-10.6,39.107L4274.114-329.8l-20.979,81.617L4242.647-207.3l-10.39,42.319-20.764,84.923L4190.93,7.759l-10.28,43.956-10.176,45.357-20.347,90.859-20.154,93.392c-6.746,30.788-13.383,62.963-20.034,94.951-6.633,32.194-13.346,63.448-19.917,96.422-26.458,129.837-52.474,264.982-78.228,403.1q-66.929,361.911-130.592,758.751v56.934q64.559-413.571,132.866-790.668c25.518-139.962,51.312-277.01,77.553-408.809,6.519-33.466,13.178-65.212,19.759-97.9,6.6-32.489,13.185-65.165,19.879-96.457l20-94.923,20.2-92.409,10.1-46.142,10.208-44.747,20.427-89.41,20.633-86.544,10.326-43.14,10.425-41.706,20.858-83.284,21.066-80.1,10.54-39.961,10.642-38.292,21.289-76.59Z" transform="translate(-3879.589 -427.522)" fill="#5e4734"/></g></g><path d="M3880.354,0l1.138,211.985c31.339-12.829,51.225-24.762,205.657-18.1V0Z" transform="translate(-3880)" fill="#e2c9ad" opacity="0.24"/><path d="M4087.15,823.622c-77.761-3.981-145.479-5.618-205.538-5.285L3880,1083.351h207.15Z" transform="translate(-3880 827.649)" fill="#8b684a" opacity="0.15" style="mix-blend-mode:multiply;isolation:isolate"/></g><g transform="translate(3899.055)"><path d="M3891.136,0V76.633c16.932-22.816,40.408-48.753,68.375-76.633Z" transform="translate(-3891.136)" fill="#e8decf" opacity="0.82"/><path d="M3953.632,0c-24.641,28.042-46.217,53.605-62.5,75.582v1611.46c13.359-13.039,27.792-26.576,39.786-40.29,59.093-100.118,129.253-210.276,129.253-210.276V0Z" transform="translate(-3891.136)" fill="#c5bcac"/><path d="M3936.75,871.883c-9.969,8.46-29.045,20.674-45.613,44.142v545.2l20.7-23.179,7.81,62.343h140.525V731.753S4038.355,766.036,3936.75,871.883Z" transform="translate(-3891.136 410.616)" fill="#a29888"/><path d="M3891.136,1078.794v40.486l22.333-64.446Z" transform="translate(-3891.136 791.72)" fill="#80776b"/><path d="M3911.785,1054.833l-20.649,64.446h28.439Z" transform="translate(-3891.136 791.721)" fill="#6b635a"/><path d="M3985.968,0l-20.019,42.179L3932.27,55.711l46.06-12.463L3995.034,0Z" transform="translate(-3869.261)" fill="#362f29"/><path d="M3994.238,87.862l5.667,3.194-2.34,6.568-6.953-4.387Z" transform="translate(-3861.26)" fill="#80776b"/><path d="M3968.785,527.827c-.2-5.4-.16-10.959-.65-16.236-.157-1.684-2.682-1.569-3.568.312-.02.041-.043.08-.062.121a2.509,2.509,0,0,0-.217.151,21.766,21.766,0,0,0-3.324,3.707,8.819,8.819,0,0,0-2.209,3.995c-.012.027-.025.053-.037.08h.018c-.056.218-.116.434-.158.659-.373,1.97,1.034,2.353,2.411,1.717q.339.809.676,1.616-.335,2.364-.668,4.73c-.3,2.114,1.735,2.2,3.062.994q.2.476.4.951C3965.448,532.995,3968.876,530.337,3968.785,527.827Z" transform="translate(-3870.737 397.696)" fill="#a29888"/><path d="M3946.866,103.489c-4.516-1.092-9.082-1.987-13.58-3.138-1.424-.364-2.312,1.505-1.763,3.418.986,3.443,3.238,3.56,5.456,4.223l3.533,1.055a2.126,2.126,0,0,0,1.146.908,22.067,22.067,0,0,0,4.554.73C3948.938,110.959,3949.617,104.154,3946.866,103.489Z" transform="translate(-3878.217)" fill="#80776b"/><path d="M3980.491,816.422a10.248,10.248,0,0,0-3.82-.811c-.784-.033-1.335.564-1.626,1.386-.15.023-.3.048-.451.073-.116-.38-.229-.76-.344-1.14-.743-2.461-3.319-1.135-3.3,1.332.009,1.163.04,2.323-.031,3.482-.111,1.818,1.153,3.518,2.319,3.456,2.2-.117,4.4-.4,6.6-.607C3982.574,823.331,3983.193,817.7,3980.491,816.422Z" transform="translate(-3866.774 627.899)" fill="#e8decf" opacity="0.4"/></g></g></svg>