<svg xmlns="http://www.w3.org/2000/svg" width="132.143" height="1083.351" viewBox="0 0 132.143 1083.351"><g transform="translate(-3891.136)"><path d="M3891.136,0V40.729c12.1-12.126,28.872-25.911,48.855-40.729Z" fill="#e8decf" opacity="0.82"/><path d="M3939.991,0c-19.263,14.285-36.129,27.307-48.855,38.5V859.393c10.443-6.642,21.726-13.538,31.1-20.524,46.2-51,101.041-107.116,101.041-107.116V0Z" fill="#c5bcac"/><path d="M3926.793,795.853c-7.793,3.87-22.705,9.457-35.657,20.192v249.391l16.185-10.6,6.106,28.518h109.852v-351.6S4006.221,747.435,3926.793,795.853Z" fill="#a29888"/><path d="M3891.136,1065.436v17.915l16.185-28.518Z" fill="#80776b"/><path d="M3907.321,1054.833l-16.185,28.518h22.291Z" fill="#6b635a"/><path d="M3985.968,0l-20.019,42.179L3932.27,55.711l46.06-12.463L3995.034,0Z" fill="#362f29"/><path d="M3994.238,87.862l5.667,3.194-2.34,6.568-6.953-4.387Z" fill="#80776b"/><path d="M3968.785,527.827c-.2-5.4-.16-10.959-.65-16.236-.157-1.684-2.682-1.569-3.568.312-.02.041-.043.08-.062.121a2.509,2.509,0,0,0-.217.151,21.766,21.766,0,0,0-3.324,3.707,8.819,8.819,0,0,0-2.209,3.995c-.012.027-.025.053-.037.08h.018c-.056.218-.116.434-.158.659-.373,1.97,1.034,2.353,2.411,1.717q.339.809.676,1.616-.335,2.364-.668,4.73c-.3,2.114,1.735,2.2,3.062.994q.2.476.4.951C3965.448,532.995,3968.876,530.337,3968.785,527.827Z" fill="#a29888"/><path d="M3946.866,103.489c-4.516-1.092-9.082-1.987-13.58-3.138-1.424-.364-2.312,1.505-1.763,3.418.986,3.443,3.238,3.56,5.456,4.223l3.533,1.055a2.126,2.126,0,0,0,1.146.908,22.067,22.067,0,0,0,4.554.73C3948.938,110.959,3949.617,104.154,3946.866,103.489Z" fill="#80776b"/><path d="M3980.491,816.422a10.248,10.248,0,0,0-3.82-.811c-.784-.033-1.335.564-1.626,1.386-.15.023-.3.048-.451.073-.116-.38-.229-.76-.344-1.14-.743-2.461-3.319-1.135-3.3,1.332.009,1.163.04,2.323-.031,3.482-.111,1.818,1.153,3.518,2.319,3.456,2.2-.117,4.4-.4,6.6-.607C3982.574,823.331,3983.193,817.7,3980.491,816.422Z" fill="#e8decf" opacity="0.4"/></g></svg>